<svg xmlns="http://www.w3.org/2000/svg" fill="none" viewBox="6 6 672 458">
<g filter="url(#filter0_dd_135_186)">
<rect x="359" y="32" width="319" height="262" rx="45" fill="white"/>
<mask id="mask0_135_186" style="mask-type:luminance" maskUnits="userSpaceOnUse" x="418" y="139" width="201" height="48">
<path d="M618.5 139.183H418.5V186.817H618.5V139.183Z" fill="white"/>
</mask>
<g mask="url(#mask0_135_186)">
<path fill-rule="evenodd" clip-rule="evenodd" d="M419.478 156.88L419.51 186.028H425.03V156.88H419.478Z" fill="#F9A31E"/>
<path fill-rule="evenodd" clip-rule="evenodd" d="M434.241 139.467V186.028H439.825V139.467H434.241Z" fill="#666666"/>
<path fill-rule="evenodd" clip-rule="evenodd" d="M449.32 186.028H454.904V139.467H449.32V186.028Z" fill="#666666"/>
<path fill-rule="evenodd" clip-rule="evenodd" d="M488.626 186.028H483.074V181.549H482.948C479.51 189.057 462.759 189.719 462.759 175.65L462.727 156.88H468.279V174.104C468.279 179.593 471.434 181.612 474.936 181.612C479.541 181.612 483.074 178.646 483.043 171.896V156.88H488.595L488.626 186.028Z" fill="#666666"/>
<path fill-rule="evenodd" clip-rule="evenodd" d="M495.756 156.88H500.929V161.422H501.055C501.623 159.687 505.188 156.123 510.424 156.123C514.746 156.123 517.68 157.984 519.541 161.549C521.465 157.984 525.282 156.123 528.784 156.123C537.774 156.123 539.856 162.527 539.888 169.057V186.06H534.336V169.814C534.336 165.366 533.39 161.328 528.058 161.328C522.696 161.328 520.614 164.956 520.614 170.129V186.06H515.03V170.792C515.03 165.24 514.21 161.328 508.878 161.328C504.872 161.328 501.308 164.356 501.308 170.918V186.06H495.756V156.88Z" fill="#666666"/>
<path fill-rule="evenodd" clip-rule="evenodd" d="M547.396 186.028H552.948V156.88H547.396V186.028Z" fill="#666666"/>
<path fill-rule="evenodd" clip-rule="evenodd" d="M561.118 156.88H566.67V161.359H566.796C570.235 153.851 586.986 153.189 586.986 167.258V186.028H581.434V168.804C581.434 163.315 578.279 161.296 574.777 161.296C570.172 161.296 566.638 164.261 566.67 171.012V186.028H561.118V156.88Z" fill="#666666"/>
<path fill-rule="evenodd" clip-rule="evenodd" d="M597.553 163.883C599.573 162.337 601.623 160.57 605.85 160.57C610.582 160.57 612.822 163.693 612.822 166.722V167.952C607.27 167.952 592.695 167.163 592.695 178.047C592.695 183.725 597.364 186.785 602.79 186.785C607.207 186.785 610.55 185.365 613.011 181.611H613.137C613.137 183.094 613.2 184.577 613.327 186.059H618.247C617.837 182.684 617.995 165.555 617.995 165.87C617.995 154.64 601.623 153.504 594.241 160.444L597.553 163.883ZM612.853 172.022V173.883C612.853 177.826 610.708 182.369 604.557 182.369C600.74 182.369 598.279 180.949 598.279 177.637C598.247 171.769 607.869 172.022 612.853 172.022Z" fill="#666666"/>
<path fill-rule="evenodd" clip-rule="evenodd" d="M422.222 142.968C420.172 142.968 418.5 144.64 418.5 146.691C418.5 148.741 420.172 150.413 422.222 150.413C424.273 150.413 425.945 148.741 425.945 146.691C425.945 144.64 424.273 142.968 422.222 142.968Z" fill="#F9A31E"/>
</g>
</g>
<g filter="url(#filter1_dd_135_186)">
<rect x="156" y="202" width="319" height="262" rx="45" fill="white"/>
<path d="M313.872 277.635L314.673 277.661C315.474 277.71 316.278 277.83 317.082 278.027L318.517 278.386C319.95 278.754 321.377 279.154 322.78 279.617L323.478 279.88C325.072 280.556 326.426 281.649 327.731 282.799L328.763 283.688C329.802 284.569 330.853 285.437 331.828 286.385L332.552 287.133C333.255 287.903 333.904 288.729 334.553 289.547L335.589 290.869C336.273 291.756 336.941 292.655 337.583 293.572L338.079 294.3C339.207 296.012 340.138 297.827 340.653 299.846L340.946 300.914C341.355 302.335 341.818 303.744 342.061 305.192L342.2 306.048C342.551 308.336 342.747 310.648 342.275 312.97L342.095 313.963C341.876 315.293 341.715 316.638 341.329 317.915L341.005 318.913C340.431 320.565 339.69 322.161 338.763 323.67L338.263 324.465C337.418 325.777 336.495 327.024 335.372 328.115L334.631 328.805C332.872 330.374 330.904 331.641 328.695 332.521L327.67 332.934C326.302 333.489 324.929 334.043 323.511 334.405L322.58 334.63C319.784 335.262 316.947 335.515 314.043 335.051L312.84 334.833C309.257 334.106 305.923 332.737 302.749 330.947L301.833 330.4C299.732 329.074 297.893 327.412 296.251 325.504L295.711 324.94C294.954 324.22 294.07 323.611 293.29 322.906L292.77 322.407C291.598 321.215 290.72 319.815 290.211 318.203L289.687 316.47C289.35 315.31 289.04 314.142 288.755 312.97L288.635 312.335C288.542 311.694 288.519 311.035 288.446 310.389L288.477 309.656C288.608 307.965 289.132 306.397 289.832 304.832L290.429 303.398C290.616 302.915 290.794 302.427 290.968 301.937L291.989 298.992L292.448 297.648C293.047 295.851 293.606 294.037 294.353 292.304L294.715 291.52C295.477 289.969 296.47 288.527 297.66 287.24L298.609 286.188C299.551 285.128 300.481 284.056 301.505 283.083L302.236 282.416C304.218 280.683 306.467 279.318 308.974 278.466L309.763 278.219C311.085 277.843 312.431 277.639 313.788 277.635H313.872ZM314.284 279.68C310.53 279.153 307.195 280.335 304.11 282.538L303.304 283.146C301.729 284.4 300.363 285.866 299.035 287.375L298.39 288.143C296.106 291.001 294.661 294.304 293.514 297.764L292.874 299.742C292.453 301.063 292.038 302.386 291.59 303.697L291.014 305.365C290.64 306.479 290.313 307.604 290.199 308.79C289.985 311.014 290.528 313.055 291.774 314.939L291.788 313.791C291.801 313.025 291.812 312.26 291.76 311.499L291.716 310.625C291.658 308.881 291.795 307.157 292.254 305.462L292.474 304.662C292.698 303.863 292.944 303.068 293.276 302.314L293.868 300.983C294.471 299.656 295.106 298.342 295.821 297.076L296.353 296.185C297.457 294.43 298.794 292.836 300.247 291.343L300.781 290.798C302.036 289.533 303.357 288.336 305.018 287.636L306.079 287.221C307.151 286.831 308.256 286.514 309.36 286.236L310.202 286.045C313.565 285.362 316.895 285.645 320.176 286.775L323.24 287.818L326.304 288.861L327.252 289.186C327.884 289.403 328.513 289.628 329.128 289.885L329.871 290.231C331.56 291.101 332.959 292.389 334.343 293.673L334.657 293.992C335.062 294.442 335.404 294.983 335.609 295.531L336.171 297.17C336.523 298.271 336.84 299.385 337.2 300.483L337.437 301.304C337.918 303.226 337.916 305.192 337.698 307.139L337.548 308.227C337.134 310.751 336.281 313.165 335.113 315.464L334.639 316.352C332.683 319.853 329.994 322.71 326.688 325.021L325.741 325.655C323.191 327.294 320.437 328.492 317.464 329.165L316.426 329.376C313.653 329.88 310.849 329.901 308.036 329.529L306.987 329.407L305.937 329.297L305.923 329.401L305.909 329.505L306.508 329.699C306.907 329.833 307.306 329.965 307.716 330.039L310.866 330.575L314.019 331.101L314.998 331.24C317.603 331.532 320.173 331.202 322.713 330.579L323.74 330.312C325.785 329.751 327.767 329.013 329.62 327.925L330.347 327.484C332.261 326.281 333.973 324.856 335.283 322.988L335.815 322.183C337.167 320.011 338.006 317.617 338.558 315.093L338.743 314.144C339.119 311.927 339.123 309.706 338.9 307.472L338.741 306.177C338.56 304.885 338.337 303.595 338.277 302.298L338.222 301.493C338.008 299.095 337.326 296.855 335.945 294.87L335.417 294.1C333.492 291.266 331.664 288.328 328.805 286.288L327.257 285.202C325.699 284.127 324.11 283.094 322.479 282.143L321.708 281.729C319.622 280.703 317.318 280.26 315.041 279.808L314.284 279.68ZM315.013 288.049C313.798 287.945 312.565 287.956 311.348 288.006L310.308 288.07C309.268 288.155 308.229 288.303 307.212 288.513L306.592 288.66C305.159 289.042 303.819 289.706 302.708 290.702L301.83 291.517C299.241 293.997 297.082 296.818 295.493 300.085L295.074 300.979C293.733 303.971 292.931 307.075 292.966 310.332L292.979 311.311C293.049 313.582 293.41 315.752 294.251 317.832L294.43 318.243C294.87 319.181 295.489 319.979 296.505 320.452L297 320.739C297.32 320.955 297.624 321.203 297.953 321.402L298.821 321.945C299.973 322.683 301.113 323.455 302.359 323.965C304.755 324.943 307.259 325.728 309.891 325.728H309.932L311.146 325.717C312.766 325.692 314.39 325.615 315.988 325.401L316.751 325.254C317.762 325.005 318.748 324.566 319.742 324.224L320.655 323.892C323.069 322.966 325.302 321.704 327.213 319.934L327.892 319.285C331.664 315.569 334.152 311.125 334.689 305.734L334.742 305.176C334.931 303.123 334.991 301.008 333.845 299.11L333.318 298.296C332.952 297.762 332.558 297.244 332.155 296.738L331.675 296.169C330.357 294.7 328.749 293.607 326.93 292.787L324.325 291.595C322.592 290.794 320.86 289.987 319.112 289.218L318.491 288.949C317.656 288.594 316.795 288.272 315.919 288.151L315.013 288.049ZM311.037 293.28L311.138 293.491C311.333 293.848 311.658 294.212 312.039 294.323L312.093 294.248C312.158 294.138 312.201 294.008 312.362 294.128L312.664 294.261C313.461 294.514 314.206 294.004 315.014 293.94L315.297 293.931C315.908 293.933 316.738 294.047 316.997 294.168L317.036 294.178C317.34 294.257 319.339 294.801 319.993 295.548L320.024 295.568C320.266 295.719 321.871 296.748 322.722 297.899L322.958 298.252C323.551 299.254 323.182 299.762 323.671 300.442L324.114 301.114L324.173 301.482C324.316 302.6 324.144 303.798 323.263 304.44L323.768 304.154L323.785 304.506C323.796 305.008 323.751 305.616 323.553 306.062L323.719 306.068C323.819 306.05 323.906 306 324.043 305.995H324.087L323.953 306.19C323.689 306.74 324.085 307.488 323.36 307.793L323.218 307.796C323.072 307.793 322.923 307.763 322.823 307.644L322.675 307.352C322.375 306.469 323.262 305.523 322.533 304.694L322.439 304.837C322.372 304.997 322.37 305.194 322.286 305.345L322.21 305.494C322.162 305.596 322.109 305.697 322.014 305.751L321.952 305.748C321.915 305.738 321.886 305.71 321.878 305.678L321.986 305.287C322.179 304.372 321.97 303.441 321.437 302.694L321.392 302.542C321.368 302.381 321.389 302.2 321.268 302.09L321.061 302.324C320.769 302.739 320.721 303.267 320.691 303.794L320.616 303.823L320.532 303.824L320.488 303.497C320.383 302.846 320.175 302.229 319.65 301.748L319.446 301.576C319.019 301.237 318.517 300.913 318.517 300.33L318.504 300.167C318.515 300.058 318.546 299.952 318.484 299.86L318.331 299.947C318.194 300.06 318.104 300.241 318.03 300.384L317.949 300.616C317.872 300.94 317.91 301.316 318.021 301.612L317.821 301.404C317.463 300.955 317.347 300.311 317.329 299.686L317.221 299.316C317.047 298.833 316.751 298.39 316.303 298.05L316.205 298.113C316.115 298.231 316.161 298.463 316.079 298.595L316.003 298.878C315.923 299.358 316.065 299.865 316.327 300.247C316.327 300.295 316.329 300.318 316.303 300.33H316.249L316.041 300.055C315.738 299.574 315.643 298.993 315.71 298.419L315.497 298.19C315.343 298.053 315.169 297.943 314.996 297.842L314.992 297.508C314.903 296.642 314.211 295.981 313.513 295.451L313.305 295.188C313.183 295.005 313.085 294.809 312.961 294.625L312.852 294.68C312.791 294.735 312.75 294.817 312.714 294.876L312.658 295.013C312.616 295.157 312.604 295.313 312.496 295.398L312.384 295.111C312.086 294.597 311.4 294.413 311.093 293.858L311.003 293.875C310.939 293.922 310.94 294.045 310.883 294.106L310.822 294.415C310.778 294.922 311.007 295.391 311.243 295.809L311.186 295.844C311.138 295.856 311.08 295.844 311.053 295.809L310.997 295.748C310.946 295.682 310.906 295.61 310.806 295.629L310.776 295.87C310.772 296.343 311.089 296.763 311.491 297.03L311.738 297.163C312.338 297.449 313.063 297.599 313.322 298.307L313.264 298.339L313.05 298.115C312.676 297.77 312.221 297.57 311.711 297.54L311.654 297.594L311.853 297.875C312.06 298.275 312.079 298.753 312.438 299.095L312.75 299.309C313.396 299.686 314.17 299.769 314.96 299.725L314.995 299.801L314.996 299.879L314.927 299.961L314.672 299.982L314.413 299.97L314.215 299.958C314.084 299.954 313.959 299.96 313.844 299.998L314.04 300.264C314.591 300.936 315.369 301.304 316.271 301.155L316.421 301.114C316.576 301.078 316.741 301.064 316.88 301.155L316.903 301.22C316.904 301.297 316.795 301.335 316.71 301.323L316.431 301.323C315.877 301.339 315.355 301.466 314.996 301.886L314.998 301.933C315.01 301.959 315.037 301.977 315.051 301.999L315.378 301.971C316.012 301.971 316.529 302.307 317.019 302.668L317.309 302.803C318.011 303.025 318.871 302.676 319.418 303.288L319.137 303.212C318.74 303.123 318.269 303.092 317.883 303.216L317.861 303.238C317.856 303.258 317.864 303.286 317.864 303.312L318.013 303.521C318.352 304.027 318.652 304.646 319.307 304.771L319.591 304.786C320.358 304.832 321.184 304.962 321.46 305.775V305.831L321.352 305.792C321.262 305.725 321.218 305.592 321.108 305.541L320.902 305.376C320.609 305.189 320.247 305.135 319.881 305.172L319.825 305.237L320.047 305.359C320.478 305.641 320.815 306.131 320.79 306.64L320.816 306.909C320.915 307.444 321.286 307.952 321.804 308.178L321.97 308.233C322.197 308.313 322.447 308.396 322.67 308.253L322.632 308.162C322.591 308.108 322.525 308.064 322.48 308.029L322.681 308.077C323.026 308.137 323.419 308.09 323.687 307.809L323.624 308.003C323.5 308.246 323.236 308.422 322.997 308.51L323.007 308.76C323.007 309.176 322.909 309.58 322.576 309.869L322.352 310.004L322.298 310.042L322.238 310.071L322.226 310.079L322.191 310.087C322.15 310.096 322.09 310.11 322.09 310.11L322.048 310.117C322.028 310.126 322.017 310.14 321.958 310.143L321.835 310.242C321.512 310.424 320.966 310.299 320.98 310.789L321.055 310.847C321.11 310.876 321.175 310.884 321.226 310.868L321.124 311.074C320.961 311.299 320.705 311.349 320.479 311.575L320.4 311.659C320.299 311.775 320.218 311.923 320.144 312.285L320.084 312.753C319.996 314.527 321.647 315.188 321.87 316.994L321.857 317.145C321.818 317.287 321.706 317.401 321.58 317.473L321.283 317.513C321.085 317.523 320.885 317.504 320.688 317.486L320.392 317.461L320.101 317.458L319.298 317.514C317.198 317.71 315.431 318.284 313.65 319.413L313.122 319.696C312.231 320.125 311.283 320.35 310.243 320.434L310.127 320.418C310.053 320.391 309.992 320.332 309.955 320.256L310.03 319.897C310.197 319.194 310.429 318.565 310.243 317.755L310.129 317.334C309.937 316.577 309.945 316.262 309.881 315.242L309.826 315.006C309.67 314.539 309.247 314.119 308.798 313.938L308.352 313.796C307.744 313.638 307.089 313.596 306.434 313.533L306.269 313.453C306.044 313.341 305.81 313.198 305.72 312.943L305.656 312.585C305.612 312.1 305.718 311.593 305.841 311.157L305.783 311.011C305.692 310.88 305.533 310.777 305.552 310.595L305.559 310.431C305.633 310.174 305.964 309.99 305.785 309.733L305.28 309.213L305.332 309.043C305.42 308.821 305.553 308.61 305.433 308.347L305.277 308.247C305.055 308.144 304.781 308.151 304.506 308.159L304.275 308.163C304.047 308.162 303.827 308.139 303.645 308.029L303.598 307.83C303.572 307.506 303.789 307.211 303.917 306.928L304.201 306.63C304.764 305.892 304.688 304.892 305.263 304.154L305.475 303.89C305.867 303.348 306.065 302.721 305.977 301.978L306.099 301.605C306.316 301.131 306.709 300.727 306.745 300.167L306.803 299.698C306.948 298.934 307.317 298.258 307.71 297.594L307.69 297.318C307.678 296.952 307.738 296.598 307.998 296.345L308.482 295.956L308.438 296.107C308.371 296.33 308.295 296.624 308.458 296.784L308.536 296.798C308.584 296.804 308.627 296.794 308.672 296.725L308.752 296.458C308.91 295.997 309.169 295.483 309.322 295.355L309.333 295.483C309.343 295.665 309.345 295.886 309.515 296.016L309.637 296.119C309.768 296.211 309.924 296.261 310.093 296.205L310.131 296.106C310.122 295.989 309.905 295.916 309.898 295.781L309.824 295.592C309.76 295.326 309.831 295.008 309.998 294.803L310.059 294.735C310.105 294.712 310.158 294.728 310.21 294.744L310.269 294.76C310.326 294.772 310.376 294.762 310.402 294.666L310.419 294.348C310.475 293.935 310.661 293.568 310.982 293.28H311.037Z" fill="url(#paint0_linear_135_186)"/>
<path d="M296.911 364.994L296.186 364.833L293.761 370.048H283.952V349.081H293.761L296.186 354.295L296.911 354.135V347.927H277.176V349.081H280.191V370.048H277.176V371.202H296.911V364.994ZM290.43 364.595L291.15 364.426V355.25L290.43 355.081L288.065 359.836L290.43 364.595ZM258.352 347.827L258.091 347.927L258.347 347.801L258.156 347.289L257.532 347.836L255.9 348.959L247.414 370.048H244.399V371.202H251.636V370.048H248.659L251.527 362.899H259.996L262.698 370.048H259.909V371.202H269.666V370.048H266.759L258.352 347.827ZM251.991 361.74L255.896 352.04L259.566 361.74H251.991ZM345.497 371.202H355.254V370.048H352.343L343.939 347.827L343.679 347.927L343.935 347.797L343.744 347.293L343.119 347.836L341.488 348.959L333.015 370.066H330V371.22H337.236V370.066H334.26L337.132 362.916H345.596L348.304 370.066H345.497V371.202ZM337.579 361.74L341.484 352.04L345.154 361.74H337.579ZM375.501 360.656L373.874 360.222C375.342 359.915 376.754 359.381 378.056 358.638C380.195 357.389 381.371 355.745 381.371 354.009C381.371 349.788 377.184 347.502 373.245 347.502H362.035V348.66H365.032V370.022H362.035V371.176H371.788V370.022H368.794V360.539H371.224L379.08 371.215H384.573V370.061H382.568L375.501 360.656ZM368.794 348.686H371.788C376.759 348.873 377.297 352.859 377.297 354.56C377.297 358.656 373.258 359.333 368.785 359.333L368.794 348.686ZM320.633 359.198C320.607 359.198 317.952 357.662 317.058 357.176L315.957 356.582C314.836 356.018 313.75 355.389 312.703 354.699C311.975 354.196 311.532 353.375 311.51 352.491C311.428 351.636 311.712 350.787 312.291 350.153C313.158 349.107 315.154 348.751 316.243 348.764C318.219 348.763 320.068 349.737 321.184 351.367L322.655 354.999H323.523V349.302L323.436 349.198C322.957 348.719 322.376 348.355 321.735 348.135C319.76 347.424 317.638 347.215 315.562 347.528C313.756 347.83 312.044 348.545 310.56 349.619C309.284 350.5 308.484 351.919 308.39 353.467C308.302 354.355 308.485 355.249 308.915 356.031C309.341 356.878 310.006 357.581 310.829 358.053C311.731 358.63 313.032 359.319 315.002 360.365L315.57 360.664C316.872 361.345 317.701 361.792 318.399 362.217C319.073 362.601 319.674 363.1 320.174 363.693C320.656 364.283 320.957 365 321.041 365.758C321.193 366.84 320.804 367.928 320 368.669C319.202 369.497 317.679 370.013 316.134 369.97C313.939 369.892 311.869 368.926 310.399 367.293L308.998 363.675H308.065V369.393L308.178 369.506C308.663 369.939 309.22 370.285 309.822 370.53C311.282 371.244 312.882 371.625 314.508 371.645C315.106 371.646 315.703 371.591 316.291 371.48C318.254 371.115 320.108 370.305 321.709 369.111C323.335 367.938 324.266 366.03 324.191 364.027C324.169 363.909 324.134 360.907 320.633 359.198ZM408.395 364.04C408.395 363.909 408.36 360.907 404.863 359.198C404.837 359.198 402.182 357.662 401.288 357.176L400.186 356.582C399.066 356.017 397.978 355.388 396.928 354.699C396.203 354.194 395.762 353.374 395.74 352.491C395.656 351.637 395.939 350.787 396.516 350.153C397.406 349.107 399.388 348.751 400.468 348.764C402.446 348.761 404.297 349.735 405.414 351.367L406.881 354.999H407.748V349.302L407.666 349.198C407.186 348.72 406.605 348.357 405.965 348.135C403.988 347.424 401.865 347.215 399.788 347.528C397.98 347.829 396.266 348.545 394.781 349.619C393.507 350.502 392.708 351.92 392.612 353.467C392.528 354.355 392.711 355.247 393.137 356.031C393.563 356.877 394.228 357.58 395.05 358.053C395.948 358.625 397.245 359.315 399.206 360.352L399.809 360.673C401.084 361.345 401.926 361.792 402.625 362.217C403.298 362.601 403.899 363.1 404.399 363.693C404.882 364.282 405.184 365 405.267 365.758C405.418 366.84 405.028 367.927 404.226 368.669C403.427 369.497 401.9 370.013 400.36 369.97C398.164 369.891 396.093 368.925 394.62 367.293L393.224 363.675H392.291V369.393L392.404 369.506C392.888 369.937 393.443 370.283 394.043 370.53C395.505 371.244 397.107 371.625 398.733 371.645C399.331 371.646 399.928 371.591 400.516 371.48C402.48 371.115 404.334 370.305 405.935 369.111C407.55 367.937 408.473 366.035 408.395 364.04ZM237.158 369.371V363.658L236.43 363.489L233.722 368.916C232.342 369.899 230.692 370.432 228.998 370.443C222.59 370.443 219.722 364.955 219.722 359.515C219.722 352.573 223.102 348.586 228.998 348.586C230.814 348.597 232.575 349.207 234.009 350.322L236.43 355.172L237.15 355.003V349.363L236.885 349.215C234.617 348.001 232.082 347.374 229.51 347.389C221.462 347.411 215.605 352.508 215.605 359.532C215.605 367.341 220.551 371.653 229.536 371.653C232.16 371.599 234.722 370.851 236.963 369.484L237.158 369.371ZM218.104 384.907H222.269V383.688H218.104V381.515H222.759V380.295H216.807V388.365H222.816V387.146H218.104V384.907ZM237.683 386.005L233.197 380.295H232.065V388.365H233.341V382.513L237.948 388.365H238.959V380.295H237.683V386.005ZM248.091 381.523H250.651V388.365H251.961V381.523H254.525V380.295H248.091V381.523ZM264.95 384.907H269.115V383.688H264.95V381.515H269.61V380.295H263.653V388.365H269.662V387.146H264.95V384.907ZM285.393 382.781C285.404 382.163 285.168 381.565 284.738 381.12C284.103 380.55 283.268 380.254 282.416 380.295H278.915V388.365H280.217V385.397H282.074L284.286 388.365H285.453L285.627 388.018L283.484 385.163C284.611 384.933 285.414 383.932 285.393 382.781ZM284.091 382.833C284.091 383.658 283.406 384.187 282.356 384.187H280.226V381.523H282.364C283.453 381.523 284.082 381.996 284.082 382.833H284.091ZM294.139 381.523H296.703V388.365H298.009V381.523H300.573V380.295H294.139V381.523ZM311.618 380.239L307.939 388.365H309.314L310.221 386.348H314.087L314.98 388.365H316.386L312.707 380.239H311.618ZM313.549 385.129H310.742L312.152 381.992L313.549 385.129ZM324.508 380.295H325.805V388.365H324.508V380.295ZM340.434 386.005L335.944 380.295H334.816V388.365H336.087V382.513L340.698 388.365H341.705V380.295H340.434V386.005ZM355.874 384.287L353.21 380.295H352.004V388.365H353.276V382.677L355.727 386.269H356L358.451 382.669V388.365H359.744V380.295H358.538L355.874 384.287ZM370.911 384.907H375.08V383.688H370.911V381.515H375.57V380.295H369.618V388.365H375.627V387.146H370.911V384.907ZM390.494 386.005L386.004 380.295H384.876V388.365H386.152V382.513L390.759 388.365H391.77V380.295H390.494V386.005ZM400.898 381.523H403.462V388.365H404.768V381.523H407.332V380.295H400.898V381.523ZM413.475 384.504C413.808 384.505 414.134 384.59 414.425 384.751C414.724 384.915 414.971 385.16 415.137 385.458C415.481 386.053 415.481 386.786 415.137 387.38C414.972 387.677 414.727 387.922 414.43 388.087C413.837 388.428 413.108 388.428 412.516 388.087C412.218 387.924 411.973 387.678 411.809 387.38C411.64 387.091 411.552 386.761 411.553 386.426C411.554 386.086 411.644 385.753 411.814 385.458C411.978 385.159 412.224 384.913 412.525 384.751C412.815 384.589 413.142 384.504 413.475 384.504ZM413.475 384.881C413.21 384.882 412.948 384.949 412.716 385.077C412.474 385.209 412.276 385.408 412.143 385.649C411.868 386.127 411.868 386.715 412.143 387.194C412.274 387.433 412.472 387.631 412.712 387.762C413.186 388.04 413.773 388.04 414.247 387.762C414.487 387.631 414.684 387.433 414.816 387.194C414.951 386.961 415.023 386.695 415.024 386.426C415.025 386.152 414.951 385.884 414.811 385.649C414.678 385.408 414.48 385.209 414.238 385.077C414.006 384.949 413.745 384.882 413.479 384.881H413.475ZM412.607 387.449V385.415H413.675C413.786 385.421 413.895 385.449 413.996 385.497C414.074 385.544 414.139 385.612 414.182 385.693C414.235 385.78 414.262 385.881 414.26 385.983C414.263 386.123 414.212 386.258 414.117 386.361C414.01 386.471 413.867 386.54 413.714 386.556C413.764 386.572 413.811 386.597 413.852 386.63C413.904 386.677 413.95 386.729 413.991 386.786C413.991 386.807 414.056 386.89 414.143 387.037L414.382 387.445H413.87L413.696 387.115C413.63 386.954 413.533 386.806 413.41 386.682C413.329 386.621 413.229 386.59 413.128 386.595H413.02V387.437L412.607 387.449ZM413.041 386.291H413.206C413.351 386.297 413.496 386.289 413.64 386.265C413.694 386.249 413.741 386.215 413.774 386.17C413.808 386.125 413.826 386.07 413.826 386.013C413.826 385.959 413.81 385.906 413.779 385.862C413.744 385.816 413.695 385.783 413.64 385.766C413.497 385.741 413.351 385.731 413.206 385.736H413.041V386.291Z" fill="#231F20"/>
</g>
<g filter="url(#filter2_dd_135_186)">
<rect x="6" y="6" width="319" height="262" rx="45" fill="white"/>
<path fill-rule="evenodd" clip-rule="evenodd" d="M70.4275 131.991H81.5242L75.8259 142.008H64.9092L70.4275 131.991Z" fill="#EC2227"/>
<path fill-rule="evenodd" clip-rule="evenodd" d="M88.7623 121.225L106.637 152.775H94.1607L82.5242 132.381L88.7623 121.225Z" fill="black"/>
<path fill-rule="evenodd" clip-rule="evenodd" d="M107.637 122.544H121.613L128.031 136.88L134.629 122.544H148.785V151.336H138.468V138.26L132.409 151.456H123.892L118.014 138.26V151.336H107.637V122.544Z" fill="black"/>
<path fill-rule="evenodd" clip-rule="evenodd" d="M149.784 122.574H175.817V130.312H160.222V132.351H175.817V139.729H160.222V143.268H175.817V151.426H149.784V122.574Z" fill="black"/>
<path fill-rule="evenodd" clip-rule="evenodd" d="M176.817 122.604H207.168V130.282H197.151V151.396H186.714V130.282H176.817V122.604Z" fill="black"/>
<path fill-rule="evenodd" clip-rule="evenodd" d="M208.168 122.604H234.32V130.282H218.665V132.321H234.32V139.759H218.665V143.298H234.32V151.396H208.168V122.604Z" fill="black"/>
<path fill-rule="evenodd" clip-rule="evenodd" d="M235.32 122.604H246.177V130.522L253.255 122.604H264.891L254.514 134.121L266.091 151.396H253.015L247.376 141.799L246.177 143.298V151.396H235.32V122.604Z" fill="black"/>
</g>
<defs>
<filter id="filter0_dd_135_186" x="353" y="26" width="331" height="274" filterUnits="userSpaceOnUse" color-interpolation-filters="sRGB">
<feFlood flood-opacity="0" result="BackgroundImageFix"/>
<feColorMatrix in="SourceAlpha" type="matrix" values="0 0 0 0 0 0 0 0 0 0 0 0 0 0 0 0 0 0 127 0" result="hardAlpha"/>
<feOffset dy="2"/>
<feGaussianBlur stdDeviation="2"/>
<feColorMatrix type="matrix" values="0 0 0 0 0 0 0 0 0 0 0 0 0 0 0 0 0 0 0.08 0"/>
<feBlend mode="normal" in2="BackgroundImageFix" result="effect1_dropShadow_135_186"/>
<feColorMatrix in="SourceAlpha" type="matrix" values="0 0 0 0 0 0 0 0 0 0 0 0 0 0 0 0 0 0 127 0" result="hardAlpha"/>
<feOffset/>
<feGaussianBlur stdDeviation="3"/>
<feColorMatrix type="matrix" values="0 0 0 0 0 0 0 0 0 0 0 0 0 0 0 0 0 0 0.02 0"/>
<feBlend mode="normal" in2="effect1_dropShadow_135_186" result="effect2_dropShadow_135_186"/>
<feBlend mode="normal" in="SourceGraphic" in2="effect2_dropShadow_135_186" result="shape"/>
</filter>
<filter id="filter1_dd_135_186" x="150" y="196" width="331" height="274" filterUnits="userSpaceOnUse" color-interpolation-filters="sRGB">
<feFlood flood-opacity="0" result="BackgroundImageFix"/>
<feColorMatrix in="SourceAlpha" type="matrix" values="0 0 0 0 0 0 0 0 0 0 0 0 0 0 0 0 0 0 127 0" result="hardAlpha"/>
<feOffset dy="2"/>
<feGaussianBlur stdDeviation="2"/>
<feColorMatrix type="matrix" values="0 0 0 0 0 0 0 0 0 0 0 0 0 0 0 0 0 0 0.08 0"/>
<feBlend mode="normal" in2="BackgroundImageFix" result="effect1_dropShadow_135_186"/>
<feColorMatrix in="SourceAlpha" type="matrix" values="0 0 0 0 0 0 0 0 0 0 0 0 0 0 0 0 0 0 127 0" result="hardAlpha"/>
<feOffset/>
<feGaussianBlur stdDeviation="3"/>
<feColorMatrix type="matrix" values="0 0 0 0 0 0 0 0 0 0 0 0 0 0 0 0 0 0 0.02 0"/>
<feBlend mode="normal" in2="effect1_dropShadow_135_186" result="effect2_dropShadow_135_186"/>
<feBlend mode="normal" in="SourceGraphic" in2="effect2_dropShadow_135_186" result="shape"/>
</filter>
<filter id="filter2_dd_135_186" x="0" y="0" width="331" height="274" filterUnits="userSpaceOnUse" color-interpolation-filters="sRGB">
<feFlood flood-opacity="0" result="BackgroundImageFix"/>
<feColorMatrix in="SourceAlpha" type="matrix" values="0 0 0 0 0 0 0 0 0 0 0 0 0 0 0 0 0 0 127 0" result="hardAlpha"/>
<feOffset dy="2"/>
<feGaussianBlur stdDeviation="2"/>
<feColorMatrix type="matrix" values="0 0 0 0 0 0 0 0 0 0 0 0 0 0 0 0 0 0 0.08 0"/>
<feBlend mode="normal" in2="BackgroundImageFix" result="effect1_dropShadow_135_186"/>
<feColorMatrix in="SourceAlpha" type="matrix" values="0 0 0 0 0 0 0 0 0 0 0 0 0 0 0 0 0 0 127 0" result="hardAlpha"/>
<feOffset/>
<feGaussianBlur stdDeviation="3"/>
<feColorMatrix type="matrix" values="0 0 0 0 0 0 0 0 0 0 0 0 0 0 0 0 0 0 0.02 0"/>
<feBlend mode="normal" in2="effect1_dropShadow_135_186" result="effect2_dropShadow_135_186"/>
<feBlend mode="normal" in="SourceGraphic" in2="effect2_dropShadow_135_186" result="shape"/>
</filter>
<linearGradient id="paint0_linear_135_186" x1="1427.12" y1="4545.83" x2="5305.49" y2="2444.29" gradientUnits="userSpaceOnUse">
<stop stop-color="#976B29"/>
<stop offset="0.254142" stop-color="#EFB21E"/>
<stop offset="0.417714" stop-color="#6E3918"/>
<stop offset="0.63186" stop-color="#FFC808"/>
<stop offset="1" stop-color="#643212"/>
</linearGradient>
</defs>
</svg>